<svg width="206" height="47" viewBox="0 0 206 47" fill="none" xmlns="http://www.w3.org/2000/svg">
<path d="M0.59375 38.4688C0.59375 34.3021 2.1875 31.5104 5.375 30.0938C7.14583 29.3021 9.46875 28.9062 12.3438 28.9062C13.4271 28.9062 14.5625 28.9479 15.75 29.0312C16.9583 29.1146 18.0208 29.2396 18.9375 29.4062V27.7188C18.9375 23.2396 18.2708 20.4688 16.9375 19.4062C16.625 19.1562 16.2083 18.9688 15.6875 18.8438C15.1875 18.7188 14.6562 18.6562 14.0938 18.6562C13.6146 18.6562 13.1562 18.7292 12.7188 18.875L11.875 24.0625C11.3125 24.7083 10.6354 25.2917 9.84375 25.8125C9.05208 26.3333 8.45833 26.5938 8.0625 26.5938C7.58333 26.5938 6.8125 26.1979 5.75 25.4062C4.70833 24.6146 3.76042 23.7188 2.90625 22.7188C2.05208 21.7188 1.625 20.8854 1.625 20.2188C1.625 19.7604 2.19792 19.2292 3.34375 18.625C4.48958 18 5.625 17.5104 6.75 17.1562C8.75 16.5312 10.9375 16.1042 13.3125 15.875C15.6875 15.6458 17.7812 15.5312 19.5938 15.5312C23.1354 15.5312 25.6979 16.375 27.2812 18.0625C28.8854 19.75 29.6875 22.0417 29.6875 24.9375V39.6875C30.1458 40.5 30.8125 41.1771 31.6875 41.7188C32.5833 42.2604 33.7292 42.7188 35.125 43.0938L34.6562 44.9062C33.3438 45.5521 31.9167 46.0208 30.375 46.3125C28.8333 46.625 27.0729 46.7812 25.0938 46.7812C24.3646 45.6771 23.5833 44.7188 22.75 43.9062C21.9167 43.0938 20.9271 42.4167 19.7812 41.875C18.9062 42.9792 18.0625 43.875 17.25 44.5625C16.4583 45.2292 15.4792 45.7604 14.3125 46.1562C13.1458 46.5729 11.7083 46.7812 10 46.7812C7.72917 46.7812 5.89583 46.3646 4.5 45.5312C3.10417 44.6979 2.10417 43.6562 1.5 42.4062C0.895833 41.1354 0.59375 39.8229 0.59375 38.4688ZM12.3125 41.3125C12.5 41.625 12.7917 41.7812 13.1875 41.7812C13.9583 41.7812 14.9271 41.6875 16.0938 41.5C17.2604 41.2917 18.2083 41.0729 18.9375 40.8438V31.5312C16.8125 31.9896 15.0729 32.4688 13.7188 32.9688C12.3646 33.4479 11.6042 33.8333 11.4375 34.125C11.1875 34.5417 11.0625 35.1979 11.0625 36.0938C11.0625 36.9688 11.1875 37.9271 11.4375 38.9688C11.6875 39.9896 11.9792 40.7708 12.3125 41.3125ZM66.3438 39.7812C67.0521 41.2396 68.8646 42.3333 71.7812 43.0625L71.3125 44.9688C70.5417 45.2812 69.2292 45.6562 67.375 46.0938C65.5417 46.5521 63.8854 46.7812 62.4062 46.7812C61.5312 45.5938 60.6771 44.625 59.8438 43.875C59.0312 43.1042 58.0729 42.4167 56.9688 41.8125C53.9271 45.125 50.4792 46.7812 46.625 46.7812C44.4583 46.7812 42.4583 46.2812 40.625 45.2812C38.7917 44.2604 37.3021 42.6562 36.1562 40.4688C35.0312 38.2812 34.4688 35.5312 34.4688 32.2188C34.4688 29.3021 34.9792 26.5729 36 24.0312C37.0417 21.4896 38.5729 19.4375 40.5938 17.875C42.6354 16.3125 45.0938 15.5312 47.9688 15.5312C49.3021 15.5312 50.5625 15.8229 51.75 16.4062C52.9583 16.9896 54.2396 17.8438 55.5938 18.9688V6.28125L51.2812 3.3125L51.5625 1.875L66.3438 0V39.7812ZM47.6562 39C48.0729 39.6458 48.6042 40.1875 49.25 40.625C49.9167 41.0417 50.5625 41.25 51.1875 41.25C51.8542 41.25 52.6562 41.1667 53.5938 41C54.5521 40.8333 55.2188 40.6458 55.5938 40.4375V21.6562C53.9896 21.3021 52.0729 21.125 49.8438 21.125C48.8646 21.125 48.0938 21.2396 47.5312 21.4688C46.9896 21.6979 46.5833 22.1771 46.3125 22.9062C45.7292 24.4896 45.4375 26.6562 45.4375 29.4062C45.4375 31.3854 45.5833 33.1458 45.875 34.6875C46.1875 36.2083 46.7812 37.6458 47.6562 39Z" fill="#2196F3"/>
<path d="M73.4688 19.125L73.7188 17.5938L85.5312 15.8438L87.5312 20.7812C89.8646 18.9271 91.9479 17.5938 93.7812 16.7812C95.6146 15.9479 97.4688 15.5312 99.3438 15.5312C102.115 15.5312 104.406 16.3438 106.219 17.9688C108.052 19.5938 108.969 22.4688 108.969 26.5938V41.625L113.719 44.0625L113.219 46H95.375L95.7812 43.9062L98.2188 41.3125V28.7188C98.2188 26.9688 98.1042 25.5208 97.875 24.375C97.6667 23.2292 97.3958 22.4792 97.0625 22.125C96.9167 21.9792 96.7604 21.875 96.5938 21.8125C96.4479 21.75 96.2292 21.7188 95.9375 21.7188C94.6875 21.7188 93.2708 21.8021 91.6875 21.9688C90.125 22.1354 88.9792 22.3542 88.25 22.625C88.2708 22.7083 88.3125 22.8958 88.375 23.1875C88.4583 23.4583 88.5 23.7917 88.5 24.1875L88.5312 41.625L92.4062 44.1562L92 46H73.2188L73.6562 43.75L77.75 41.3125V22.0312L73.4688 19.125ZM113.156 31.5625C113.156 28.7708 113.844 26.1458 115.219 23.6875C116.615 21.2292 118.562 19.2604 121.062 17.7812C123.562 16.2812 126.385 15.5312 129.531 15.5312C132.552 15.5312 135.271 16.0833 137.688 17.1875C140.125 18.2708 142.052 19.9583 143.469 22.25C144.906 24.5208 145.625 27.3646 145.625 30.7812C145.625 33.5729 144.927 36.1979 143.531 38.6562C142.156 41.1146 140.219 43.0833 137.719 44.5625C135.219 46.0417 132.396 46.7812 129.25 46.7812C126.229 46.7812 123.5 46.2396 121.062 45.1562C118.646 44.0521 116.719 42.3646 115.281 40.0938C113.865 37.8229 113.156 34.9792 113.156 31.5625ZM131.656 42.1875C132.26 42.1875 132.771 42.125 133.188 42C133.604 41.8542 133.875 41.6667 134 41.4375C134.312 40.8958 134.562 39.9271 134.75 38.5312C134.938 37.1146 135.031 35.6458 135.031 34.125C135.031 31.2917 134.698 28.8229 134.031 26.7188C133.385 24.6146 132.458 22.9896 131.25 21.8438C130.062 20.6979 128.677 20.125 127.094 20.125C126.51 20.125 126.01 20.1979 125.594 20.3438C125.177 20.4688 124.906 20.6458 124.781 20.875C124.469 21.3958 124.219 22.3646 124.031 23.7812C123.844 25.1771 123.75 26.6458 123.75 28.1875C123.75 31.0208 124.073 33.4896 124.719 35.5938C125.385 37.6979 126.312 39.3229 127.5 40.4688C128.688 41.6146 130.073 42.1875 131.656 42.1875ZM148.094 16.3125H152.562L154.156 9.96875L163.312 6.1875V16.3125H172.938L172.438 19.0312L163.312 21.5625V34.5312C163.312 35.9062 163.469 37.1979 163.781 38.4062C164.094 39.5938 164.51 40.4271 165.031 40.9062C165.385 41.2188 165.875 41.375 166.5 41.375C167.125 41.375 168.333 41.2604 170.125 41.0312C171.917 40.8021 173.188 40.6354 173.938 40.5312L174.344 41.5625C173.094 43.0417 171.49 44.2812 169.531 45.2812C167.573 46.2812 165.333 46.7812 162.812 46.7812C159.75 46.7812 157.271 45.9062 155.375 44.1562C153.5 42.4062 152.562 39.7292 152.562 36.125V21.5625L147.531 19.0938L148.094 16.3125ZM192.469 15.5312C195.073 15.5312 197.354 16.0104 199.312 16.9688C201.271 17.9271 202.781 19.25 203.844 20.9375C204.906 22.6042 205.438 24.4792 205.438 26.5625C205.438 28.3542 205.146 29.8438 204.562 31.0312C204.375 31.3854 204.115 31.6562 203.781 31.8438C203.448 32.0312 202.99 32.125 202.406 32.125H186.219C186.51 33.6875 187.031 35.1667 187.781 36.5625C188.552 37.9583 189.469 39.0833 190.531 39.9375C191.594 40.7917 192.708 41.2188 193.875 41.2188C195.062 41.2188 196.698 41.1042 198.781 40.875C200.885 40.625 202.323 40.4271 203.094 40.2812L203.562 41.3125C202.188 43.0833 200.354 44.4375 198.062 45.375C195.792 46.3125 193.354 46.7812 190.75 46.7812C188.167 46.7812 185.708 46.2292 183.375 45.125C181.062 44.0208 179.177 42.3229 177.719 40.0312C176.26 37.7396 175.531 34.8958 175.531 31.5C175.531 28.7083 176.219 26.0938 177.594 23.6562C178.99 21.2188 180.969 19.2604 183.531 17.7812C186.115 16.2812 189.094 15.5312 192.469 15.5312ZM196.438 27.8125C196.229 26.1667 195.771 24.7708 195.062 23.625C194.375 22.4583 193.521 21.5833 192.5 21C191.479 20.3958 190.365 20.0938 189.156 20.0938C188.76 20.0938 188.427 20.1354 188.156 20.2188C187.906 20.2812 187.708 20.4375 187.562 20.6875C186.542 22.25 186.021 25.125 186 29.3125L196.438 27.8125Z" fill="#F3B743"/>
</svg>
